{"title":"Naruto Shippuuden - 362 [Hi10 720p] [ENG-SUBBED] [GWC].mp4","uid":10199074,"size":139720132,"categoryP":"video","categoryS":"tv_shows","magnet":"?xt=urn:btih:79c80cbb77d1feab373b60c57f4798aa69c60927&amp;dn=Naruto+Shippuuden+-+362+%5BHi10+720p%5D+%5BENG-SUBBED%5D+%5BGWC%5D.mp4&amp;tr=udp%3A%2F%2Ftracker.openbittorrent.com%3A80&amp;tr=udp%3A%2F%2Fopen.demonii.com%3A1337&amp;tr=udp%3A%2F%2Ftracker.coppersurfer.tk%3A6969&amp;tr=udp%3A%2F%2Fexodus.desync.com%3A6969","seeders":0,"leechers":0,"uploader":"canc232","files":1,"time":1400743002,"description":"Naruto Shippuuden - 362 [Hi10 720p] [ENG-SUBBED] [GWC] \n\n\nSTORYLINE :\nNaruto Uzumaki, is a loud, hyperactive, adolescent ninja who constantly searches for approval and recognition, as well as to become Hokage, who is acknowledged as the leader and strongest of all ninja in the village.\n\n\nTHUMBMNAIL IMAGE : &lt;a href=&quot;\nhttp://i.imgur.com/ky6yibP.jpg&quot; rel=&quot;nofollow&quot; target=&quot;_NEW&quot;&gt;\nhttp://i.imgur.com/ky6yibP.jpg&lt;/a&gt;\n\n\nMEDIA INFO :\nGeneral \nFormat : MPEG-4 \nFormat profile : Base Media \nFile size : 133 MiB \nDuration : 20mn 10s \nOverall bit rate mode : Variable \nOverall bit rate : 924 Kbps \n\nVideo \nFormat : AVC \nFormat profile : High &lt;a class=&quot;__cf_email__&quot; href=&quot;/cdn-cgi/l/email-protection&quot; data-cfemail=&quot;b28382f2fe869c83&quot;&gt;[email&amp;#160;protected]&lt;/a&gt;&lt;script data-cfhash='f9e31' type=&quot;text/javascript&quot;&gt;\n/* &lt;![CDATA[ */!function(){try{var t=&quot;currentScript&quot;in document?document.currentScript:function(){for(var t=document.getElementsByTagName(&quot;script&quot;),e=t.length;e--;)if(t[e].getAttribute(&quot;data-cfhash&quot;))return t[e]}();if(t&amp;&amp;t.previousSibling){var e,r,n,i,c=t.previousSibling,a=c.getAttribute(&quot;data-cfemail&quot;);if(a){for(e=&quot;&quot;,r=parseInt(a.substr(0,2),16),n=2;a.length-n;n+=2)i=parseInt(a.substr(n,2),16)^r,e+=String.fromCharCode(i);e=document.createTextNode(e),c.parentNode.replaceChild(e,c)}t.parentNode.removeChild(t);}}catch(u){}}()/* ]]&gt; */&lt;/script&gt; \nFormat settings, CABAC : Yes \nFormat settings, ReFrames : 10 frames \nDuration : 20mn 10s \nBit rate : 848 Kbps \nMaximum bit rate : 6 869 Kbps \nWidth : 1 280 pixels \nHeight : 720 pixels \nDisplay aspect ratio : 16:9 \nFrame rate mode : Variable \nFrame rate : 23.976 fps \nStream size : 122 MiB (92%) \nTitle : Naruto Shippuuden - 362 [Hi10 720p] [ENG-SUBBED] [GWC] \nWriting library : x264 core\n\nAudio \nFormat : AAC \nFormat profile : HE-AAC / LC \nDuration : 20mn 10s \nBit rate mode : Variable \nChannel(s) : 2 channels \nSampling rate : 48.0 KHz / 24.0 KHz \nStream size : 10.4 MiB (8%) \nLanguage : Japanese \n\nText \nFormat : Timed Text \nTitle : [GWC] \nLanguage : English \n\n","torrent":{"xt":"urn:btih:79c80cbb77d1feab373b60c57f4798aa69c60927","amp;dn":"Naruto+Shippuuden+-+362+%5BHi10+720p%5D+%5BENG-SUBBED%5D+%5BGWC%5D.mp4","amp;tr":["udp%3A%2F%2Ftracker.openbittorrent.com%3A80","udp%3A%2F%2Fopen.demonii.com%3A1337","udp%3A%2F%2Ftracker.coppersurfer.tk%3A6969","udp%3A%2F%2Fexodus.desync.com%3A6969"],"infoHash":"79c80cbb77d1feab373b60c57f4798aa69c60927","infoHashBuffer":{"type":"Buffer","data":[121,200,12,187,119,209,254,171,55,59,96,197,127,71,152,170,105,198,9,39]},"announce":[],"urlList":[]}}